<?xml version="1.0" encoding="UTF-8"?>
<svg id="mySvg" width="667.03" height="574.41" version="1.1" viewBox="0 0 176.48 151.98" xml:space="preserve" xmlns="http://www.w3.org/2000/svg"><defs id="defs13722"><marker id="Arrow4" overflow="visible" markerHeight="6" markerWidth="5" orient="auto-start-reverse" preserveAspectRatio="xMidYMid" viewBox="0 0 5 6"><path id="path1741" d="m1 0-3 3h-2l3-3-3-3h2z" fill="context-stroke" fill-rule="evenodd"/></marker><marker id="Dot" overflow="visible" markerHeight="5.6666665" markerWidth="5.6666665" orient="auto" preserveAspectRatio="xMidYMid" viewBox="0 0 5.6666667 5.6666667"><path id="Dot1" transform="scale(.5)" d="m5 0c0 2.76-2.24 5-5 5s-5-2.24-5-5 2.3-5 5-5c2.76 0 5 2.24 5 5z" fill="context-stroke" fill-rule="evenodd" stroke="context-stroke" stroke-width="1pt"/></marker><marker id="TriangleStart" overflow="visible" markerHeight="6.155385" markerWidth="5.3244081" orient="auto-start-reverse" preserveAspectRatio="xMidYMid" viewBox="0 0 5.3244081 6.1553851"><path id="path135" transform="scale(.5)" d="m5.77 0-8.65 5v-10z" fill="context-stroke" fill-rule="evenodd" stroke="context-stroke" stroke-width="1pt"/></marker><marker id="TriangleStart-7" overflow="visible" markerHeight="6.155385" markerWidth="5.3244081" orient="auto-start-reverse" preserveAspectRatio="xMidYMid" viewBox="0 0 5.3244081 6.1553851"><path id="path135-8" transform="scale(.5)" d="m5.77 0-8.65 5v-10z" fill="context-stroke" fill-rule="evenodd" stroke="context-stroke" stroke-width="1pt"/></marker><marker id="Dot-3" overflow="visible" markerHeight="5.6666665" markerWidth="5.6666665" orient="auto" preserveAspectRatio="xMidYMid" viewBox="0 0 5.6666667 5.6666667"><path id="Dot1-1" transform="scale(.5)" d="m5 0c0 2.76-2.24 5-5 5s-5-2.24-5-5 2.3-5 5-5c2.76 0 5 2.24 5 5z" fill="context-stroke" fill-rule="evenodd" stroke="context-stroke" stroke-width="1pt"/></marker><marker id="TriangleStart-7-9" overflow="visible" markerHeight="6.155385" markerWidth="5.3244081" orient="auto-start-reverse" preserveAspectRatio="xMidYMid" viewBox="0 0 5.3244081 6.1553851"><path id="path135-8-2" transform="scale(.5)" d="m5.77 0-8.65 5v-10z" fill="context-stroke" fill-rule="evenodd" stroke="context-stroke" stroke-width="1pt"/></marker>
       <filter id="filter2268" x="-.18039" y="-2.1161" width="1.5082" height="7.0967" color-interpolation-filters="sRGB"><feFlood id="feFlood2258" flood-color="rgb(0,0,0)" flood-opacity=".52157" result="flood"/><feComposite id="feComposite2260" in="flood" in2="SourceGraphic" operator="in" result="composite1"/><feGaussianBlur id="feGaussianBlur2262" in="composite1" result="blur" stdDeviation="2.4"/><feOffset id="feOffset2264" dx="2.7" dy="3.1" result="offset"/><feComposite id="feComposite2266" in="SourceGraphic" in2="offset" result="composite2"/></filter><filter id="filter2352" x="-.46515" y="-.4777" width="2.1331" height="2.1946" color-interpolation-filters="sRGB"><feFlood id="feFlood2342" flood-color="rgb(0,0,0)" flood-opacity=".52157" result="flood"/><feComposite id="feComposite2344" in="flood" in2="SourceGraphic" operator="in" result="composite1"/><feGaussianBlur id="feGaussianBlur2346" in="composite1" result="blur" stdDeviation="2.4"/><feOffset id="feOffset2348" dx="2.7" dy="3.1" result="offset"/><feComposite id="feComposite2350" in="SourceGraphic" in2="offset" result="composite2"/></filter><filter id="filter2436" x="-.42618" y="-.44125" width="2.0238" height="2.0864" color-interpolation-filters="sRGB"><feFlood id="feFlood2426" flood-color="rgb(0,0,0)" flood-opacity=".52157" result="flood"/><feComposite id="feComposite2428" in="flood" in2="SourceGraphic" operator="in" result="composite1"/><feGaussianBlur id="feGaussianBlur2430" in="composite1" result="blur" stdDeviation="2.4"/><feOffset id="feOffset2432" dx="2.7" dy="3.1" result="offset"/><feComposite id="feComposite2434" in="SourceGraphic" in2="offset" result="composite2"/></filter><filter id="filter2520" x="-.39295" y="-.25711" width="1.7969" height="1.5332" color-interpolation-filters="sRGB"><feFlood id="feFlood2510" flood-color="rgb(0,0,0)" flood-opacity=".52157" result="flood"/><feComposite id="feComposite2512" in="flood" in2="SourceGraphic" operator="in" result="composite1"/><feGaussianBlur id="feGaussianBlur2514" in="composite1" result="blur" stdDeviation="2.4"/><feOffset id="feOffset2516" dx="2.7" dy="3.1" result="offset"/><feComposite id="feComposite2518" in="SourceGraphic" in2="offset" result="composite2"/></filter><filter id="filter2604" x="-.30302" y="-.19732" width="1.8329" height="1.5894" color-interpolation-filters="sRGB"><feFlood id="feFlood2594" flood-color="rgb(0,0,0)" flood-opacity=".52157" result="flood"/><feComposite id="feComposite2596" in="flood" in2="SourceGraphic" operator="in" result="composite1"/><feGaussianBlur id="feGaussianBlur2598" in="composite1" result="blur" stdDeviation="2.4"/><feOffset id="feOffset2600" dx="2.7" dy="3.1" result="offset"/><feComposite id="feComposite2602" in="SourceGraphic" in2="offset" result="composite2"/></filter><filter id="filter2688" x="-.36921" y="-.28592" width="2.0122" height="1.5999" color-interpolation-filters="sRGB"><feFlood id="feFlood2678" flood-color="rgb(0,0,0)" flood-opacity=".52157" result="flood"/><feComposite id="feComposite2680" in="flood" in2="SourceGraphic" operator="in" result="composite1"/><feGaussianBlur id="feGaussianBlur2682" in="composite1" result="blur" stdDeviation="2.4"/><feOffset id="feOffset2684" dx="2.7" dy="3.1" result="offset"/><feComposite id="feComposite2686" in="SourceGraphic" in2="offset" result="composite2"/></filter><filter id="filter2772" x="-.088595" y="-.10301" width="1.2138" height="1.2479" color-interpolation-filters="sRGB"><feFlood id="feFlood2762" flood-color="rgb(0,0,0)" flood-opacity=".52157" result="flood"/><feComposite id="feComposite2764" in="flood" in2="SourceGraphic" operator="in" result="composite1"/><feGaussianBlur id="feGaussianBlur2766" in="composite1" result="blur" stdDeviation="2.4"/><feOffset id="feOffset2768" dx="2.7" dy="3.1" result="offset"/><feComposite id="feComposite2770" in="SourceGraphic" in2="offset" result="composite2"/></filter><filter id="filter2940" x="-.61296" y="-.62707" width="2.6793" height="2.79" color-interpolation-filters="sRGB"><feFlood id="feFlood2930" flood-color="rgb(0,0,0)" flood-opacity=".52157" result="flood"/><feComposite id="feComposite2932" in="flood" in2="SourceGraphic" operator="in" result="composite1"/><feGaussianBlur id="feGaussianBlur2934" in="composite1" result="blur" stdDeviation="2.4"/><feOffset id="feOffset2936" dx="2.7" dy="3.1" result="offset"/><feComposite id="feComposite2938" in="SourceGraphic" in2="offset" result="composite2"/></filter><filter id="filter3024" x="-.30356" y="-.55806" width="1.7333" height="2.3893" color-interpolation-filters="sRGB"><feFlood id="feFlood3014" flood-color="rgb(0,0,0)" flood-opacity=".52157" result="flood"/><feComposite id="feComposite3016" in="flood" in2="SourceGraphic" operator="in" result="composite1"/><feGaussianBlur id="feGaussianBlur3018" in="composite1" result="blur" stdDeviation="2.4"/><feOffset id="feOffset3020" dx="2.7" dy="3.1" result="offset"/><feComposite id="feComposite3022" in="SourceGraphic" in2="offset" result="composite2"/></filter></defs>
              <g id="layer1" transform="translate(-10.86 -25.582)"><g stroke-linecap="round"><path id="path7498" d="m140.73 48.043c28.124-5.255 41.601 21.52 34.436 37.82 11.022 4.3358 12.705 15.55 7.3185 22.944 7.9341 4.3961 4.1466 19.595-2.3144 21.842 0.9982 3.7411-0.10898 8.6452-4.6875 11.095-4.9855 2.3636-9.5763 0.93695-14.115-1.5295 0.11973 2.4183-0.58147 6.158-6.6456 9.9844-9.6598 10.85-9.812 14.339-24.051 14.383-2.9146 0.0111-9.8543-2.3811-11.563-5.1356 1.4542 4.9734 1.1983 7.5332 0.64938 10.367-5.4351-3.5604-9.3774 0.51836-20.153-7.2576-2.2703-2.5587-14.811-4.4374-18.899-9.269-2.1638-2.541-3.1593-6.6826 0.02446-10.187-12.09 3.7205-29.001-0.21563-33.573-8.8806-12.83 4.4601-24.205-5.6865-22.482-15.392-5.646 2.9443-10.891-4.6134-8.8377-12.112-8.5022-7.2808-1.6686-21.394 6.3329-23.621-3.9678-8.2776 3.7121-18.843 11.815-20.12-2.2513-10.261 15.002-20.241 21.042-15.625 1.2904-7.8798 16.468-12.688 25.095-6.922 4.8446-11.816 48.169-18.746 60.608 7.6169z" fill="#e5e5e5" stroke="#cbcbcb" stroke-linejoin="round" stroke-miterlimit="5" stroke-width="1.4676"/><path id="path25730-6-0-9" d="m131.81 109.63c4.5067 4.5894 8.0574 7.4322 11.863 11.812" fill="#0f5133" filter="url(#filter2940)" marker-end="url(#Arrow4)" stroke="#072f42" stroke-width="1.055"/><path id="synapse1" class="clickable" d="m102.43 61.148s5.3252 6.1069 8.0013 9.0608c2.1609 2.3853 4.3469 5.2758 6.9508 9.7684 2.3311 4.022 2.4388 4.3285 3.2484 6.0244 0.76248 1.5972 2.6054 7.0981 2.6054 7.0981" cursor="pointer" fill="none" filter="url(#filter2604)" marker-end="url(#TriangleStart-7)" pointer-events="all" stroke="#922c00" stroke-width="1.0892" onmouseout="this.style.stroke='#922c00'" onmouseover="this.style.stroke='#ff6633'" title="Here is a title"/></g><g pointer-events="all" stroke-opacity="0">
       <path id="neuron3" class="clickable" transform="matrix(.2156 0 0 .2156 95.408 -11.802)" d="m48.564 341.08-73.421-1.2023 37.752-62.983 17.835 32.093z" cursor="pointer" fill="#0e6a93" filter="url(#filter2772)" onmouseout="this.style.fill='#0e6a93'" onmouseover="this.style.fill='#ff6633'"/>
       <path id="device1" class="clickable" transform="matrix(.26458 0 0 .26458 93.69 -24.212)" d="m-148.98 389.82-17.001 28.885-33.516-0.28125-16.514-29.166 17.001-28.885 33.516 0.28125z" cursor="pointer" fill="#072f42" filter="url(#filter3024)" onmouseout="this.style.fill='#072f42'" onmouseover="this.style.fill='#ff6633'"/>
       <path id="device2" class="clickable" d="m147.77 123.12c0.21485 0.0446 14.459 0.17923 14.459 0.17923l-7.289 10.996-14.235-0.19896z" cursor="pointer" fill="#072f42" filter="url(#filter3024)" onmouseout="this.style.fill='#072f42'" onmouseover="this.style.fill='#ff6633'"/></g><g fill="none" pointer-events="all" stroke="#922c00" stroke-linecap="round">
       <path id="synapse2" class="clickable" d="m75.167 96.022s2.7677-7.1735 4.2276-10.73c1.1789-2.8715 2.7839-5.9638 5.6015-10.059 2.5225-3.6666 2.7432-3.8834 3.8774-5.2742 1.0682-1.3099 3.3188-3.8336 3.3188-3.8336" cursor="pointer" filter="url(#filter2688)" marker-end="url(#TriangleStart)" stroke-width="1.052" onmouseout="this.style.stroke='#922c00'" onmouseover="this.style.stroke='#ff6633'"/>       <path id="synapse3" class="clickable" d="m80.025 100.59s7.4941 0.11693 11.239 0.25822c3.0238 0.11409 6.4999 0.45482 11.279 0.96756 4.3152 0.46295 5.2892 0.702 7.0215 0.95441 1.8925 0.27574 5.2842 0.78843 5.2842 0.78843" cursor="pointer" filter="url(#filter2268)" marker-end="url(#Dot)" stroke-width="1.0436" onmouseout="this.style.stroke='#922c00'" onmouseover="this.style.stroke='#ff6633'"/><path id="synapse4" class="clickable" d="m122.49 98.943s-8.1142-8.0381-10.297-11.202c-1.763-2.5549-3.6232-5.6159-6.1456-9.8507-2.2775-3.8236-2.6847-4.7663-3.5461-6.3407-0.94107-1.7199-2.2545-6.6031-2.2545-6.6031" cursor="pointer" filter="url(#filter2520)" marker-end="url(#Dot-3)" stroke-width="1.052" onmouseout="this.style.stroke='#922c00'" onmouseover="this.style.stroke='#ff6633'"/></g><g><path id="neuron2" class="clickable" d="m134.53 105.29a7.8725 7.6036 0 0 1-7.8725 7.6036 7.8725 7.6036 0 0 1-7.8725-7.6036 7.8725 7.6036 0 0 1 7.8725-7.6036 7.8725 7.6036 0 0 1 7.8725 7.6036z" cursor="pointer" fill="#0e6a93" filter="url(#filter2436)" pointer-events="all" stroke-opacity="0" onmouseout="this.style.fill='#0e6a93'" onmouseover="this.style.fill='#ff6633'"/>
       <path id="neuron1" class="clickable" d="m65.275 95.851h13.1c0.0587 0 0.10595 0.18023 0.10595 0.40409v12.154c0 0.22387-0.04725 0.4041-0.10595 0.4041h-13.1c-0.0587 0-0.10596-0.18023-0.10596-0.4041v-12.154c0-0.22387 0.04726-0.40409 0.10596-0.40409z" cursor="pointer" fill="#0e6a93" filter="url(#filter2352)" pointer-events="all" stroke-opacity="0" onmouseout="this.style.fill='#0e6a93'" onmouseover="this.style.fill='#ff6633'"/>
       <path id="path25730-6-0" d="m52.211 82.914c3.896 3.8949 6.9656 6.3075 10.255 10.024" fill="#072f42" filter="url(#filter2940)" marker-end="url(#TriangleStart-7-9)" stroke="#072f42" stroke-linecap="round" stroke-width="1.052"/><g font-family="'DejaVu Sans'" font-size="4.2333px" stroke-linecap="round" stroke-opacity=".49615" stroke-width="1.484" text-anchor="middle">
       <text id="text4342" x="99.386574" y="46.284897" fill="#635c59" text-align="center" xml:space="preserve"><tspan id="tspan4340" x="99.386574" y="46.284897" fill="#635c59" font-size="4.2333px" stroke-opacity=".49615" stroke-width="1.484">Neurons</tspan></text><text id="text4342-3" x="51.873074" y="69.71347" fill="#635c59" text-align="center" xml:space="preserve"><tspan id="tspan4340-5" x="51.873074" y="69.71347" fill="#635c59" font-size="4.2333px" stroke-opacity=".49615" stroke-width="1.484">Stimulating Devices</tspan></text><text id="text4342-2" x="127.56969" y="73.442909" fill="#69625f" text-align="center" xml:space="preserve"><tspan id="tspan4340-9" x="127.56969" y="73.442909" fill="#69625f" font-size="4.2333px" stroke-opacity=".49615" stroke-width="1.484">Synapses</tspan></text><text id="text4446" x="148.97768" y="139.66132" fill="#69625f" text-align="center" xml:space="preserve"><tspan id="tspan4444" x="148.97768" y="139.66132" fill="#69625f" font-size="4.2333px" stroke-opacity=".49615" stroke-width="1.484">Recording Devices</tspan></text></g></g></g>
       </svg>
